REM GENRE Drum & Bass
REM DATE 2005
PERFORMER "VA"
TITLE "Cruel and Unusual"
FILE "201-va-cruel_and_unusual.mp3" WAVE
  TRACK 01 AUDIO
    TITLE "Stranded v2"
    PERFORMER "Black Sun Empire"
    INDEX 01 00:00:00
  TRACK 02 AUDIO
    TITLE "Centepod"
    PERFORMER "Black Sun Empire"
    INDEX 01 02:00:52
  TRACK 03 AUDIO
    TITLE "Circle Of Nine"
    PERFORMER "Black Sun Empire"
    INDEX 01 04:01:29
  TRACK 04 AUDIO
    TITLE "Sahara"
    PERFORMER "Black Sun Empire"
    INDEX 01 05:33:72
  TRACK 05 AUDIO
    TITLE "Brood X"
    PERFORMER "Black Sun Empire"
    INDEX 01 08:35:51
  TRACK 06 AUDIO
    TITLE "Boris The Blade (Optiv Remix)"
    PERFORMER "Black Sun Empire"
    INDEX 01 10:14:32
  TRACK 07 AUDIO
    TITLE "Just The One"
    PERFORMER "Black Sun Empire"
    INDEX 01 12:48:01
  TRACK 08 AUDIO
    TITLE "Got Lost"
    PERFORMER "Black Sun Empire"
    INDEX 01 14:48:53
  TRACK 09 AUDIO
    TITLE "The Promist 2005"
    PERFORMER "Black Sun Empire"
    INDEX 01 17:33:20
  TRACK 10 AUDIO
    TITLE "Skullfucked"
    PERFORMER "Black Sun Empire"
    INDEX 01 20:01:28
  TRACK 11 AUDIO
    TITLE "Eggplant (Black Sun Empire Remix)"
    PERFORMER "Black Sun Empire"
    INDEX 01 23:51:59
  TRACK 12 AUDIO
    TITLE "Night Raiders"
    PERFORMER "Black Sun Empire"
    INDEX 01 26:03:23
  TRACK 13 AUDIO
    TITLE "The Cooler"
    PERFORMER "Black Sun Empire"
    INDEX 01 27:31:16
  TRACK 14 AUDIO
    TITLE "Sideways"
    PERFORMER "Black Sun Empire"
    INDEX 01 30:26:56
  TRACK 15 AUDIO
    TITLE "Fearless"
    PERFORMER "Black Sun Empire"
    INDEX 01 32:38:31
  TRACK 16 AUDIO
    TITLE "Hideous"
    PERFORMER "Black Sun Empire"
    INDEX 01 35:12:00
  TRACK 17 AUDIO
    TITLE "Everything"
    PERFORMER "Black Sun Empire"
    INDEX 01 39:35:24
  TRACK 18 AUDIO
    TITLE "Masquerade"
    PERFORMER "Black Sun Empire"
    INDEX 01 41:57:71
  TRACK 19 AUDIO
    TITLE "Bitemark"
    PERFORMER "Black Sun Empire"
    INDEX 01 43:36:52
  TRACK 20 AUDIO
    TITLE "1138"
    PERFORMER "Black Sun Empire"
    INDEX 01 48:43:67
  TRACK 21 AUDIO
    TITLE "Future Frame"
    PERFORMER "Black Sun Empire"
    INDEX 01 52:23:24
  TRACK 22 AUDIO
    TITLE "Breathe (Black Sun Empire Remix Two)"
    PERFORMER "Black Sun Empire"
    INDEX 01 57:08:44
  TRACK 23 AUDIO
    TITLE "Panorama"
    PERFORMER "Black Sun Empire"
    INDEX 01 63:21:45
  TRACK 24 AUDIO
    TITLE "Beautiful Morning (Black Sun Empire Remix)"
    PERFORMER "Black Sun Empire"
    INDEX 01 65:33:20
